{"title":"Dragon Blade 2015 720p HDTS NEW VIDEO x264 Pimp4003","uid":11754824,"size":3180324743,"categoryP":"video","categoryS":"movies","magnet":"?xt=urn:btih:4c1cc7cfaa62211b307652cb27bd436970b8e2f1&amp;dn=Dragon+Blade+2015+720p+HDTS+NEW+VIDEO+x264+Pimp4003&amp;tr=udp%3A%2F%2Ftracker.openbittorrent.com%3A80&amp;tr=udp%3A%2F%2Fopen.demonii.com%3A1337&amp;tr=udp%3A%2F%2Ftracker.coppersurfer.tk%3A6969&amp;tr=udp%3A%2F%2Fexodus.desync.com%3A6969","seeders":3,"leechers":4,"uploader":"shawnmurthy","files":1,"time":1426343947,"description":"NEW SOURCE VIDEO WAS USED IN THIS BUT AUDIO WAS FROM ORIGINAL SOURCE..SYNC CAME OUT WELL....DID USUAL ON VIDEO...ADJUSTED CONTRAST...BRIGHTENED VIDEO AND CLEARED UP THE AUDIO...ENJOY ...PIMP4003 OUT\n\nSCREENSHOTS GO HERE...http://pimp4003DOTnet/torrents.php?id=b77dbe031cd749a666926d41eb330e0fc849d6e9\n\nI am looking for: Pre-Retail Supplier Unreleased DVD/BluRay/Web-Dls/R5/CAM/TS If you have something to offer, please contact ME: &lt;a class=&quot;__cf_email__&quot; href=&quot;/cdn-cgi/l/email-protection&quot; data-cfemail=&quot;dfafb6b2afebefefec9fb7aaacb7b2beb6b3f1bcb0b2f1&quot;&gt;[email&amp;#160;protected]&lt;/a&gt;&lt;script cf-hash='f9e31' type=&quot;text/javascript&quot;&gt;\n/* &lt;![CDATA[ */!function(){try{var t=&quot;currentScript&quot;in document?document.currentScript:function(){for(var t=document.getElementsByTagName(&quot;script&quot;),e=t.length;e--;)if(t[e].getAttribute(&quot;cf-hash&quot;))return t[e]}();if(t&amp;&amp;t.previousSibling){var e,r,n,i,c=t.previousSibling,a=c.getAttribute(&quot;data-cfemail&quot;);if(a){for(e=&quot;&quot;,r=parseInt(a.substr(0,2),16),n=2;a.length-n;n+=2)i=parseInt(a.substr(n,2),16)^r,e+=String.fromCharCode(i);e=document.createTextNode(e),c.parentNode.replaceChild(e,c)}}}catch(u){}}();/* ]]&gt; */&lt;/script&gt; WE CAN WORK OUT A GREAT DEAL THAT WORKS OUT FOR EVERY PARTY.\n &lt;a href=&quot;\nhttp://i.imgur.com/J3ny9bJ.jpg&quot; rel=&quot;nofollow&quot; target=&quot;_NEW&quot;&gt;\nhttp://i.imgur.com/J3ny9bJ.jpg&lt;/a&gt;\n &lt;a href=&quot;\nhttp://i.imgur.com/SpsuXOR.png&quot; rel=&quot;nofollow&quot; target=&quot;_NEW&quot;&gt;\nhttp://i.imgur.com/SpsuXOR.png&lt;/a&gt;\n\nPIMP THE ONE AND ONLY PIMPSTER.....PRESENTS\n\nfacebookDOTcom/OfficialPimp4003\n &lt;a href=&quot;\nhttp://i.imgur.com/5U8dsp2.jpg&quot; rel=&quot;nofollow&quot; target=&quot;_NEW&quot;&gt;\nhttp://i.imgur.com/5U8dsp2.jpg&lt;/a&gt;\n\nDragon Blade 2015 720p HDTS NEW VIDEO x264 Pimp4003\n &lt;a href=&quot;\nhttp://www.imdb.com/title/tt3672840/&quot; rel=&quot;nofollow&quot; target=&quot;_NEW&quot;&gt;\nhttp://www.imdb.com/title/tt3672840/&lt;/a&gt;\n\nLost Roman soldiers navigate their way through China.\n\nDirector: Daniel Lee\n\nWriter: Daniel Lee\n\nStars: Adrien Brody, John Cusack, Sharni Vinson | See full cast and crew Â»\n\nVideo\n\nID : 1\n\nFormat : MPEG-4 Visual\n\nFormat profile : Simple@L3\n\nFormat settings, BVOP : No\n\nFormat settings, QPel : No\n\nFormat settings, GMC : No warppoints\n\nFormat settings, Matrix : Default (H.263)\n\nCodec ID : 20\n\nDuration : 2h 7mn\n\nBit rate : 3 063 Kbps\n\nWidth : 1 280 pixels\n\nHeight : 536 pixels\n\nDisplay aspect ratio : 2.40:1\n\nFrame rate mode : Variable\n\nFrame rate : 59.940 fps\n\nMinimum frame rate : 59.916 fps\n\nMaximum frame rate : 60.157 fps\n\nColor space : YUV\n\nChroma subsampling : 4:2:0\n\nBit depth : 8 bits\n\nScan type : Progressive\n\nCompression mode : Lossy\n\nBits/(Pixel*Frame) : 0.074\n\nStream size : 2.73 GiB (92%)\n\nWriting library : ZJMedia MPEG Encoder\n\nAudio\n\nID : 2\n\nFormat : AAC\n\nFormat/Info : Advanced Audio Codec\n\nFormat profile : LC\n\nCodec ID : 40\n\nDuration : 2h 7mn\n\nBit rate mode : Variable\n\nBit rate : 258 Kbps\n\nChannel(s) : 2 channels\n\nChannel positions : Front: L R\n\nSampling rate : 48.0 KHz\n\nCompression mode : Lossy\n\nStream size : 235 MiB (8%)\n\nLanguage : English","torrent":{"xt":"urn:btih:4c1cc7cfaa62211b307652cb27bd436970b8e2f1","amp;dn":"Dragon+Blade+2015+720p+HDTS+NEW+VIDEO+x264+Pimp4003","amp;tr":["udp%3A%2F%2Ftracker.openbittorrent.com%3A80","udp%3A%2F%2Fopen.demonii.com%3A1337","udp%3A%2F%2Ftracker.coppersurfer.tk%3A6969","udp%3A%2F%2Fexodus.desync.com%3A6969"],"infoHash":"4c1cc7cfaa62211b307652cb27bd436970b8e2f1","infoHashBuffer":{"type":"Buffer","data":[76,28,199,207,170,98,33,27,48,118,82,203,39,189,67,105,112,184,226,241]},"announce":[],"urlList":[]}}